<mxfile host="app.diagrams.net" modified="2021-05-14T09:36:37.386Z" agent="5.0 (Macintosh; Intel Mac OS X 10_14_6) AppleWebKit/537.36 (KHTML, like Gecko) Chrome/90.0.4430.93 Safari/537.36" etag="JEaZNNALoPwZqd7HggOw" version="14.6.6" type="github">
  <diagram id="C5RBs43oDa-KdzZeNtuy" name="Page-1">
    <mxGraphModel dx="1271" dy="740" grid="1" gridSize="10" guides="1" tooltips="1" connect="1" arrows="1" fold="1" page="1" pageScale="1" pageWidth="827" pageHeight="1169" math="0" shadow="0">
      <root>
        <mxCell id="WIyWlLk6GJQsqaUBKTNV-0" />
        <mxCell id="WIyWlLk6GJQsqaUBKTNV-1" parent="WIyWlLk6GJQsqaUBKTNV-0" />
        <mxCell id="7oDWNTa3vxUwjJ4YV3hs-2" value="" style="edgeStyle=orthogonalEdgeStyle;rounded=0;orthogonalLoop=1;jettySize=auto;html=1;" edge="1" parent="WIyWlLk6GJQsqaUBKTNV-1" source="7oDWNTa3vxUwjJ4YV3hs-0" target="7oDWNTa3vxUwjJ4YV3hs-1">
          <mxGeometry relative="1" as="geometry" />
        </mxCell>
        <mxCell id="7oDWNTa3vxUwjJ4YV3hs-0" value="1" style="rounded=0;whiteSpace=wrap;html=1;shadow=1;fillColor=#dae8fc;strokeColor=#6c8ebf;" vertex="1" parent="WIyWlLk6GJQsqaUBKTNV-1">
          <mxGeometry x="160" y="700" width="60" height="40" as="geometry" />
        </mxCell>
        <mxCell id="7oDWNTa3vxUwjJ4YV3hs-6" value="" style="edgeStyle=orthogonalEdgeStyle;rounded=0;orthogonalLoop=1;jettySize=auto;html=1;" edge="1" parent="WIyWlLk6GJQsqaUBKTNV-1" source="7oDWNTa3vxUwjJ4YV3hs-1" target="7oDWNTa3vxUwjJ4YV3hs-5">
          <mxGeometry relative="1" as="geometry" />
        </mxCell>
        <mxCell id="7oDWNTa3vxUwjJ4YV3hs-1" value="2" style="rounded=0;whiteSpace=wrap;html=1;shadow=1;fillColor=#dae8fc;strokeColor=#6c8ebf;" vertex="1" parent="WIyWlLk6GJQsqaUBKTNV-1">
          <mxGeometry x="250" y="700" width="60" height="40" as="geometry" />
        </mxCell>
        <mxCell id="7oDWNTa3vxUwjJ4YV3hs-3" value="B3" style="rounded=0;whiteSpace=wrap;html=1;fillColor=#d5e8d4;strokeColor=#82b366;shadow=1;" vertex="1" parent="WIyWlLk6GJQsqaUBKTNV-1">
          <mxGeometry x="330" y="770" width="60" height="40" as="geometry" />
        </mxCell>
        <mxCell id="7oDWNTa3vxUwjJ4YV3hs-4" value="" style="endArrow=classic;html=1;exitX=1;exitY=1;exitDx=0;exitDy=0;entryX=0;entryY=0;entryDx=0;entryDy=0;" edge="1" parent="WIyWlLk6GJQsqaUBKTNV-1" source="7oDWNTa3vxUwjJ4YV3hs-1" target="7oDWNTa3vxUwjJ4YV3hs-3">
          <mxGeometry width="50" height="50" relative="1" as="geometry">
            <mxPoint x="390" y="850" as="sourcePoint" />
            <mxPoint x="440" y="800" as="targetPoint" />
          </mxGeometry>
        </mxCell>
        <mxCell id="7oDWNTa3vxUwjJ4YV3hs-9" value="" style="edgeStyle=orthogonalEdgeStyle;rounded=0;orthogonalLoop=1;jettySize=auto;html=1;" edge="1" parent="WIyWlLk6GJQsqaUBKTNV-1" source="7oDWNTa3vxUwjJ4YV3hs-5" target="7oDWNTa3vxUwjJ4YV3hs-7">
          <mxGeometry relative="1" as="geometry" />
        </mxCell>
        <mxCell id="7oDWNTa3vxUwjJ4YV3hs-5" value="A3" style="rounded=0;whiteSpace=wrap;html=1;shadow=1;fillColor=#dae8fc;strokeColor=#6c8ebf;" vertex="1" parent="WIyWlLk6GJQsqaUBKTNV-1">
          <mxGeometry x="340" y="700" width="60" height="40" as="geometry" />
        </mxCell>
        <mxCell id="7oDWNTa3vxUwjJ4YV3hs-7" value="Merge&lt;br&gt;AB3" style="rounded=0;whiteSpace=wrap;html=1;shadow=1;fillColor=#ffe6cc;strokeColor=#d79b00;" vertex="1" parent="WIyWlLk6GJQsqaUBKTNV-1">
          <mxGeometry x="430" y="700" width="60" height="40" as="geometry" />
        </mxCell>
        <mxCell id="7oDWNTa3vxUwjJ4YV3hs-8" value="" style="endArrow=classic;html=1;entryX=0.5;entryY=1;entryDx=0;entryDy=0;exitX=1;exitY=0.5;exitDx=0;exitDy=0;" edge="1" parent="WIyWlLk6GJQsqaUBKTNV-1" source="7oDWNTa3vxUwjJ4YV3hs-3" target="7oDWNTa3vxUwjJ4YV3hs-7">
          <mxGeometry width="50" height="50" relative="1" as="geometry">
            <mxPoint x="390" y="850" as="sourcePoint" />
            <mxPoint x="440" y="800" as="targetPoint" />
          </mxGeometry>
        </mxCell>
        <mxCell id="7oDWNTa3vxUwjJ4YV3hs-12" value="" style="edgeStyle=orthogonalEdgeStyle;rounded=0;orthogonalLoop=1;jettySize=auto;html=1;" edge="1" parent="WIyWlLk6GJQsqaUBKTNV-1" source="7oDWNTa3vxUwjJ4YV3hs-10" target="7oDWNTa3vxUwjJ4YV3hs-11">
          <mxGeometry relative="1" as="geometry" />
        </mxCell>
        <mxCell id="7oDWNTa3vxUwjJ4YV3hs-10" value="1" style="rounded=0;whiteSpace=wrap;html=1;shadow=1;fillColor=#dae8fc;strokeColor=#6c8ebf;" vertex="1" parent="WIyWlLk6GJQsqaUBKTNV-1">
          <mxGeometry x="160" y="890" width="60" height="40" as="geometry" />
        </mxCell>
        <mxCell id="7oDWNTa3vxUwjJ4YV3hs-16" value="" style="edgeStyle=orthogonalEdgeStyle;rounded=0;orthogonalLoop=1;jettySize=auto;html=1;" edge="1" parent="WIyWlLk6GJQsqaUBKTNV-1" source="7oDWNTa3vxUwjJ4YV3hs-11" target="7oDWNTa3vxUwjJ4YV3hs-15">
          <mxGeometry relative="1" as="geometry" />
        </mxCell>
        <mxCell id="7oDWNTa3vxUwjJ4YV3hs-11" value="2" style="rounded=0;whiteSpace=wrap;html=1;shadow=1;fillColor=#dae8fc;strokeColor=#6c8ebf;" vertex="1" parent="WIyWlLk6GJQsqaUBKTNV-1">
          <mxGeometry x="250" y="890" width="60" height="40" as="geometry" />
        </mxCell>
        <mxCell id="7oDWNTa3vxUwjJ4YV3hs-13" value="B3" style="rounded=0;whiteSpace=wrap;html=1;fillColor=#d5e8d4;strokeColor=#82b366;shadow=1;" vertex="1" parent="WIyWlLk6GJQsqaUBKTNV-1">
          <mxGeometry x="440" y="890" width="60" height="40" as="geometry" />
        </mxCell>
        <mxCell id="7oDWNTa3vxUwjJ4YV3hs-17" value="" style="edgeStyle=orthogonalEdgeStyle;rounded=0;orthogonalLoop=1;jettySize=auto;html=1;" edge="1" parent="WIyWlLk6GJQsqaUBKTNV-1" source="7oDWNTa3vxUwjJ4YV3hs-15" target="7oDWNTa3vxUwjJ4YV3hs-13">
          <mxGeometry relative="1" as="geometry" />
        </mxCell>
        <mxCell id="7oDWNTa3vxUwjJ4YV3hs-15" value="A3" style="rounded=0;whiteSpace=wrap;html=1;shadow=1;fillColor=#dae8fc;strokeColor=#6c8ebf;" vertex="1" parent="WIyWlLk6GJQsqaUBKTNV-1">
          <mxGeometry x="340" y="890" width="60" height="40" as="geometry" />
        </mxCell>
        <mxCell id="7oDWNTa3vxUwjJ4YV3hs-20" value="" style="edgeStyle=orthogonalEdgeStyle;rounded=0;orthogonalLoop=1;jettySize=auto;html=1;" edge="1" parent="WIyWlLk6GJQsqaUBKTNV-1" source="7oDWNTa3vxUwjJ4YV3hs-18" target="7oDWNTa3vxUwjJ4YV3hs-15">
          <mxGeometry relative="1" as="geometry" />
        </mxCell>
        <mxCell id="7oDWNTa3vxUwjJ4YV3hs-18" value="pull --rebaes&lt;br&gt;变基，以A3为基础&lt;br&gt;除了changid改变外没有比的副作用" style="rounded=1;whiteSpace=wrap;html=1;shadow=1;" vertex="1" parent="WIyWlLk6GJQsqaUBKTNV-1">
          <mxGeometry x="310" y="980" width="120" height="60" as="geometry" />
        </mxCell>
        <mxCell id="7oDWNTa3vxUwjJ4YV3hs-27" value="" style="edgeStyle=orthogonalEdgeStyle;rounded=0;orthogonalLoop=1;jettySize=auto;html=1;" edge="1" parent="WIyWlLk6GJQsqaUBKTNV-1" source="7oDWNTa3vxUwjJ4YV3hs-21" target="7oDWNTa3vxUwjJ4YV3hs-22">
          <mxGeometry relative="1" as="geometry" />
        </mxCell>
        <mxCell id="7oDWNTa3vxUwjJ4YV3hs-21" value="fetch" style="rounded=0;whiteSpace=wrap;html=1;shadow=1;fillColor=#dae8fc;strokeColor=#6c8ebf;" vertex="1" parent="WIyWlLk6GJQsqaUBKTNV-1">
          <mxGeometry x="170" y="360" width="60" height="40" as="geometry" />
        </mxCell>
        <mxCell id="7oDWNTa3vxUwjJ4YV3hs-22" value="merge&lt;br&gt;FETCH_HEAD&amp;nbsp;" style="rounded=0;whiteSpace=wrap;html=1;shadow=1;fillColor=#dae8fc;strokeColor=#6c8ebf;" vertex="1" parent="WIyWlLk6GJQsqaUBKTNV-1">
          <mxGeometry x="290" y="360" width="100" height="40" as="geometry" />
        </mxCell>
        <mxCell id="7oDWNTa3vxUwjJ4YV3hs-23" value="pull" style="rounded=0;whiteSpace=wrap;html=1;shadow=1;fillColor=#dae8fc;strokeColor=#6c8ebf;" vertex="1" parent="WIyWlLk6GJQsqaUBKTNV-1">
          <mxGeometry x="555" y="360" width="60" height="40" as="geometry" />
        </mxCell>
        <mxCell id="7oDWNTa3vxUwjJ4YV3hs-24" value="&amp;nbsp;git pull&lt;br&gt;&amp;nbsp;git push" style="rounded=0;whiteSpace=wrap;html=1;shadow=1;align=left;" vertex="1" parent="WIyWlLk6GJQsqaUBKTNV-1">
          <mxGeometry x="550" y="690" width="70" height="60" as="geometry" />
        </mxCell>
        <mxCell id="7oDWNTa3vxUwjJ4YV3hs-25" value="&amp;nbsp;git pull --rebase&lt;br&gt;&amp;nbsp;git push" style="rounded=0;whiteSpace=wrap;html=1;shadow=1;align=left;" vertex="1" parent="WIyWlLk6GJQsqaUBKTNV-1">
          <mxGeometry x="540" y="900" width="90" height="60" as="geometry" />
        </mxCell>
        <mxCell id="7oDWNTa3vxUwjJ4YV3hs-28" value="" style="shape=flexArrow;endArrow=classic;startArrow=classic;html=1;" edge="1" parent="WIyWlLk6GJQsqaUBKTNV-1">
          <mxGeometry width="100" height="100" relative="1" as="geometry">
            <mxPoint x="425" y="379.5" as="sourcePoint" />
            <mxPoint x="515" y="379.5" as="targetPoint" />
          </mxGeometry>
        </mxCell>
        <mxCell id="7oDWNTa3vxUwjJ4YV3hs-31" value="" style="edgeStyle=orthogonalEdgeStyle;rounded=0;orthogonalLoop=1;jettySize=auto;html=1;" edge="1" parent="WIyWlLk6GJQsqaUBKTNV-1" source="7oDWNTa3vxUwjJ4YV3hs-29" target="7oDWNTa3vxUwjJ4YV3hs-30">
          <mxGeometry relative="1" as="geometry" />
        </mxCell>
        <mxCell id="7oDWNTa3vxUwjJ4YV3hs-29" value="fetch" style="rounded=0;whiteSpace=wrap;html=1;shadow=1;fillColor=#dae8fc;strokeColor=#6c8ebf;" vertex="1" parent="WIyWlLk6GJQsqaUBKTNV-1">
          <mxGeometry x="170" y="440" width="60" height="40" as="geometry" />
        </mxCell>
        <mxCell id="7oDWNTa3vxUwjJ4YV3hs-30" value="rebase&lt;br&gt;FETCH_HEAD&amp;nbsp;" style="rounded=0;whiteSpace=wrap;html=1;shadow=1;fillColor=#dae8fc;strokeColor=#6c8ebf;" vertex="1" parent="WIyWlLk6GJQsqaUBKTNV-1">
          <mxGeometry x="290" y="440" width="100" height="40" as="geometry" />
        </mxCell>
        <mxCell id="7oDWNTa3vxUwjJ4YV3hs-32" value="" style="shape=flexArrow;endArrow=classic;startArrow=classic;html=1;" edge="1" parent="WIyWlLk6GJQsqaUBKTNV-1">
          <mxGeometry width="100" height="100" relative="1" as="geometry">
            <mxPoint x="425" y="459.5" as="sourcePoint" />
            <mxPoint x="515" y="459.5" as="targetPoint" />
          </mxGeometry>
        </mxCell>
        <mxCell id="7oDWNTa3vxUwjJ4YV3hs-33" value="pull --rebase" style="rounded=0;whiteSpace=wrap;html=1;shadow=1;fillColor=#dae8fc;strokeColor=#6c8ebf;" vertex="1" parent="WIyWlLk6GJQsqaUBKTNV-1">
          <mxGeometry x="550" y="440" width="130" height="40" as="geometry" />
        </mxCell>
      </root>
    </mxGraphModel>
  </diagram>
</mxfile>
